<mxfile host="app.diagrams.net" agent="Mozilla/5.0 (Windows NT 10.0; Win64; x64) AppleWebKit/537.36 (KHTML, like Gecko) Chrome/136.0.0.0 Safari/537.36" version="27.0.9">
  <diagram name="Page-1" id="c4acf3e9-155e-7222-9cf6-157b1a14988f">
    <mxGraphModel grid="1" page="1" gridSize="10" guides="1" tooltips="1" connect="1" arrows="1" fold="1" pageScale="1" pageWidth="850" pageHeight="1100" background="none" math="0" shadow="0">
      <root>
        <mxCell id="0" />
        <mxCell id="1" parent="0" />
        <mxCell id="3V-Jaaxt2Y7fFEWC-3_t-4" value="&lt;div style=&quot;background-color:#172030;color:#c9cccd&quot;&gt;&lt;pre style=&quot;font-family:&#39;Inter&#39;;font-size:9.8pt;&quot;&gt;com.pluralsight&lt;/pre&gt;&lt;/div&gt;" style="shape=folder;fontStyle=1;spacingTop=10;tabWidth=40;tabHeight=14;tabPosition=left;html=1;whiteSpace=wrap;fillColor=#1ba1e2;fontColor=#ffffff;strokeColor=#006EAF;" vertex="1" parent="1">
          <mxGeometry x="-340" y="160" width="110" height="50" as="geometry" />
        </mxCell>
        <mxCell id="3V-Jaaxt2Y7fFEWC-3_t-5" value="One_Heck_Of_A_Main" style="swimlane;fontStyle=0;childLayout=stackLayout;horizontal=1;startSize=26;fillColor=none;horizontalStack=0;resizeParent=1;resizeParentMax=0;resizeLast=0;collapsible=1;marginBottom=0;whiteSpace=wrap;html=1;" vertex="1" parent="1">
          <mxGeometry x="-162.5" y="170" width="220" height="60" as="geometry" />
        </mxCell>
        <mxCell id="3V-Jaaxt2Y7fFEWC-3_t-6" value="&amp;nbsp; One_Heck_Of_A_UI.UI_Display();" style="text;strokeColor=none;fillColor=none;align=left;verticalAlign=top;spacingLeft=4;spacingRight=4;overflow=hidden;rotatable=0;points=[[0,0.5],[1,0.5]];portConstraint=eastwest;whiteSpace=wrap;html=1;" vertex="1" parent="3V-Jaaxt2Y7fFEWC-3_t-5">
          <mxGeometry y="26" width="220" height="34" as="geometry" />
        </mxCell>
        <mxCell id="3V-Jaaxt2Y7fFEWC-3_t-9" style="rounded=0;orthogonalLoop=1;jettySize=auto;html=1;exitX=0.75;exitY=0;exitDx=0;exitDy=0;entryX=0;entryY=0;entryDx=110;entryDy=14;entryPerimeter=0;edgeStyle=orthogonalEdgeStyle;strokeWidth=3;fillColor=#a20025;strokeColor=#6F0000;endArrow=diamond;endFill=0;" edge="1" parent="1" source="3V-Jaaxt2Y7fFEWC-3_t-5" target="3V-Jaaxt2Y7fFEWC-3_t-4">
          <mxGeometry relative="1" as="geometry" />
        </mxCell>
        <mxCell id="3V-Jaaxt2Y7fFEWC-3_t-10" value="&lt;div style=&quot;background-color: rgb(23, 32, 48); color: rgb(201, 204, 205);&quot;&gt;&lt;pre style=&quot;font-family:&#39;Inter&#39;;font-size:9.8pt;&quot;&gt;&lt;div style=&quot;background-color:#172030;color:#c9cccd&quot;&gt;&lt;pre style=&quot;font-family:&#39;Inter&#39;;font-size:9.8pt;&quot;&gt;Heck_Emuns&lt;/pre&gt;&lt;/div&gt;&lt;/pre&gt;&lt;/div&gt;" style="shape=folder;fontStyle=1;spacingTop=10;tabWidth=40;tabHeight=14;tabPosition=left;html=1;whiteSpace=wrap;fillColor=light-dark(#FFFFFF,#FF8C27);" vertex="1" parent="1">
          <mxGeometry x="-590" y="260" width="110" height="50" as="geometry" />
        </mxCell>
        <mxCell id="3V-Jaaxt2Y7fFEWC-3_t-11" style="edgeStyle=orthogonalEdgeStyle;rounded=0;orthogonalLoop=1;jettySize=auto;html=1;entryX=0;entryY=0;entryDx=0;entryDy=23;entryPerimeter=0;strokeColor=light-dark(#000000,#67AB9F);strokeWidth=3;" edge="1" parent="1" source="3V-Jaaxt2Y7fFEWC-3_t-10" target="3V-Jaaxt2Y7fFEWC-3_t-4">
          <mxGeometry relative="1" as="geometry" />
        </mxCell>
        <mxCell id="3V-Jaaxt2Y7fFEWC-3_t-12" value="enum BreadTypes" style="swimlane;fontStyle=0;childLayout=stackLayout;horizontal=1;startSize=26;fillColor=none;horizontalStack=0;resizeParent=1;resizeParentMax=0;resizeLast=0;collapsible=1;marginBottom=0;whiteSpace=wrap;html=1;" vertex="1" parent="1">
          <mxGeometry x="-700" y="360" width="120" height="100" as="geometry" />
        </mxCell>
        <mxCell id="3V-Jaaxt2Y7fFEWC-3_t-13" value="WHITE&lt;div&gt;WHEAT&lt;br&gt;RYE&lt;br&gt;WRAP&lt;/div&gt;" style="text;strokeColor=none;fillColor=none;align=center;verticalAlign=top;spacingLeft=4;spacingRight=4;overflow=hidden;rotatable=0;points=[[0,0.5],[1,0.5]];portConstraint=eastwest;whiteSpace=wrap;html=1;" vertex="1" parent="3V-Jaaxt2Y7fFEWC-3_t-12">
          <mxGeometry y="26" width="120" height="74" as="geometry" />
        </mxCell>
        <mxCell id="3V-Jaaxt2Y7fFEWC-3_t-14" style="edgeStyle=orthogonalEdgeStyle;rounded=0;orthogonalLoop=1;jettySize=auto;html=1;entryX=0;entryY=0;entryDx=0;entryDy=32;entryPerimeter=0;endArrow=box;endFill=0;" edge="1" parent="1" source="3V-Jaaxt2Y7fFEWC-3_t-12" target="3V-Jaaxt2Y7fFEWC-3_t-10">
          <mxGeometry relative="1" as="geometry" />
        </mxCell>
        <mxCell id="3V-Jaaxt2Y7fFEWC-3_t-17" value="enum DrinkSize" style="swimlane;fontStyle=0;childLayout=stackLayout;horizontal=1;startSize=26;fillColor=none;horizontalStack=0;resizeParent=1;resizeParentMax=0;resizeLast=0;collapsible=1;marginBottom=0;whiteSpace=wrap;html=1;" vertex="1" parent="1">
          <mxGeometry x="-570" y="360" width="110" height="100" as="geometry" />
        </mxCell>
        <mxCell id="3V-Jaaxt2Y7fFEWC-3_t-18" value="SMALL&lt;br&gt;MEDIUM&lt;br&gt;LARGE" style="text;strokeColor=none;fillColor=none;align=center;verticalAlign=top;spacingLeft=4;spacingRight=4;overflow=hidden;rotatable=0;points=[[0,0.5],[1,0.5]];portConstraint=eastwest;whiteSpace=wrap;html=1;" vertex="1" parent="3V-Jaaxt2Y7fFEWC-3_t-17">
          <mxGeometry y="26" width="110" height="74" as="geometry" />
        </mxCell>
        <mxCell id="3V-Jaaxt2Y7fFEWC-3_t-19" value="enum SandwichSize" style="swimlane;fontStyle=0;childLayout=stackLayout;horizontal=1;startSize=26;fillColor=none;horizontalStack=0;resizeParent=1;resizeParentMax=0;resizeLast=0;collapsible=1;marginBottom=0;whiteSpace=wrap;html=1;" vertex="1" parent="1">
          <mxGeometry x="-750" y="180" width="150" height="100" as="geometry" />
        </mxCell>
        <mxCell id="3V-Jaaxt2Y7fFEWC-3_t-20" value="FOUR_INCH&lt;div&gt;EIGHT_INCH&lt;br&gt;TWELVE_INCH&lt;/div&gt;" style="text;strokeColor=none;fillColor=none;align=center;verticalAlign=top;spacingLeft=4;spacingRight=4;overflow=hidden;rotatable=0;points=[[0,0.5],[1,0.5]];portConstraint=eastwest;whiteSpace=wrap;html=1;" vertex="1" parent="3V-Jaaxt2Y7fFEWC-3_t-19">
          <mxGeometry y="26" width="150" height="74" as="geometry" />
        </mxCell>
        <mxCell id="3V-Jaaxt2Y7fFEWC-3_t-21" style="edgeStyle=orthogonalEdgeStyle;rounded=0;orthogonalLoop=1;jettySize=auto;html=1;entryX=0.579;entryY=1.04;entryDx=0;entryDy=0;entryPerimeter=0;endArrow=box;endFill=0;" edge="1" parent="1" source="3V-Jaaxt2Y7fFEWC-3_t-17" target="3V-Jaaxt2Y7fFEWC-3_t-10">
          <mxGeometry relative="1" as="geometry" />
        </mxCell>
        <mxCell id="3V-Jaaxt2Y7fFEWC-3_t-22" style="edgeStyle=orthogonalEdgeStyle;rounded=0;orthogonalLoop=1;jettySize=auto;html=1;entryX=0.991;entryY=0.773;entryDx=0;entryDy=0;entryPerimeter=0;endArrow=box;endFill=0;" edge="1" parent="1" source="3V-Jaaxt2Y7fFEWC-3_t-19" target="3V-Jaaxt2Y7fFEWC-3_t-10">
          <mxGeometry relative="1" as="geometry" />
        </mxCell>
        <mxCell id="3V-Jaaxt2Y7fFEWC-3_t-23" value="&lt;div style=&quot;background-color: rgb(23, 32, 48); color: rgb(201, 204, 205);&quot;&gt;&lt;pre style=&quot;font-family:&#39;Inter&#39;;font-size:9.8pt;&quot;&gt;&lt;div style=&quot;background-color:#172030;color:#c9cccd&quot;&gt;&lt;pre style=&quot;font-family:&#39;Inter&#39;;font-size:9.8pt;&quot;&gt;Heck_Recepit&lt;/pre&gt;&lt;/div&gt;&lt;/pre&gt;&lt;/div&gt;" style="shape=folder;fontStyle=1;spacingTop=10;tabWidth=40;tabHeight=14;tabPosition=left;html=1;whiteSpace=wrap;fillColor=light-dark(#1BA1E2,#1EC455);fontColor=#ffffff;strokeColor=#006EAF;" vertex="1" parent="1">
          <mxGeometry x="-340" y="260" width="110" height="50" as="geometry" />
        </mxCell>
        <mxCell id="3V-Jaaxt2Y7fFEWC-3_t-24" style="edgeStyle=orthogonalEdgeStyle;rounded=0;orthogonalLoop=1;jettySize=auto;html=1;entryX=0.5;entryY=1;entryDx=0;entryDy=0;entryPerimeter=0;exitX=0.485;exitY=0.31;exitDx=0;exitDy=0;exitPerimeter=0;strokeWidth=2;fillColor=#e6d0de;gradientColor=#d5739d;strokeColor=#996185;" edge="1" parent="1" source="3V-Jaaxt2Y7fFEWC-3_t-23" target="3V-Jaaxt2Y7fFEWC-3_t-4">
          <mxGeometry relative="1" as="geometry" />
        </mxCell>
        <mxCell id="3V-Jaaxt2Y7fFEWC-3_t-25" value="Heckful_Recepits" style="swimlane;fontStyle=0;childLayout=stackLayout;horizontal=1;startSize=26;fillColor=none;horizontalStack=0;resizeParent=1;resizeParentMax=0;resizeLast=0;collapsible=1;marginBottom=0;whiteSpace=wrap;html=1;" vertex="1" parent="1">
          <mxGeometry x="-400" y="330" width="200" height="52" as="geometry" />
        </mxCell>
        <mxCell id="3V-Jaaxt2Y7fFEWC-3_t-26" value="+ saveReceipt(order): void" style="text;strokeColor=none;fillColor=none;align=left;verticalAlign=top;spacingLeft=4;spacingRight=4;overflow=hidden;rotatable=0;points=[[0,0.5],[1,0.5]];portConstraint=eastwest;whiteSpace=wrap;html=1;" vertex="1" parent="3V-Jaaxt2Y7fFEWC-3_t-25">
          <mxGeometry y="26" width="200" height="26" as="geometry" />
        </mxCell>
        <mxCell id="3V-Jaaxt2Y7fFEWC-3_t-29" style="edgeStyle=orthogonalEdgeStyle;rounded=0;orthogonalLoop=1;jettySize=auto;html=1;entryX=0.368;entryY=1.006;entryDx=0;entryDy=0;entryPerimeter=0;strokeWidth=2;exitX=0.5;exitY=0;exitDx=0;exitDy=0;endArrow=box;endFill=0;" edge="1" parent="1" source="3V-Jaaxt2Y7fFEWC-3_t-25" target="3V-Jaaxt2Y7fFEWC-3_t-23">
          <mxGeometry relative="1" as="geometry">
            <mxPoint x="-280.24" y="406.4" as="sourcePoint" />
            <mxPoint x="-280.17999999999984" y="350" as="targetPoint" />
          </mxGeometry>
        </mxCell>
        <mxCell id="3V-Jaaxt2Y7fFEWC-3_t-31" style="edgeStyle=orthogonalEdgeStyle;rounded=0;orthogonalLoop=1;jettySize=auto;html=1;entryX=0.52;entryY=0.282;entryDx=0;entryDy=0;entryPerimeter=0;strokeWidth=3;fillColor=#008a00;strokeColor=#005700;" edge="1" parent="1" source="3V-Jaaxt2Y7fFEWC-3_t-30" target="3V-Jaaxt2Y7fFEWC-3_t-4">
          <mxGeometry relative="1" as="geometry" />
        </mxCell>
        <mxCell id="3V-Jaaxt2Y7fFEWC-3_t-30" value="&lt;div style=&quot;background-color: rgb(23, 32, 48); color: rgb(201, 204, 205);&quot;&gt;&lt;pre style=&quot;font-family:&#39;Inter&#39;;font-size:9.8pt;&quot;&gt;com.Sides&lt;/pre&gt;&lt;/div&gt;" style="shape=folder;fontStyle=1;spacingTop=10;tabWidth=40;tabHeight=14;tabPosition=left;html=1;whiteSpace=wrap;fillColor=#d5e8d4;strokeColor=#82b366;" vertex="1" parent="1">
          <mxGeometry x="90" y="90" width="110" height="50" as="geometry" />
        </mxCell>
        <mxCell id="3V-Jaaxt2Y7fFEWC-3_t-38" style="edgeStyle=orthogonalEdgeStyle;rounded=0;orthogonalLoop=1;jettySize=auto;html=1;endArrow=box;endFill=0;" edge="1" parent="1" source="3V-Jaaxt2Y7fFEWC-3_t-34" target="3V-Jaaxt2Y7fFEWC-3_t-30">
          <mxGeometry relative="1" as="geometry" />
        </mxCell>
        <mxCell id="3V-Jaaxt2Y7fFEWC-3_t-34" value="Drinks" style="swimlane;fontStyle=0;childLayout=stackLayout;horizontal=1;startSize=26;fillColor=none;horizontalStack=0;resizeParent=1;resizeParentMax=0;resizeLast=0;collapsible=1;marginBottom=0;whiteSpace=wrap;html=1;" vertex="1" parent="1">
          <mxGeometry x="95" y="220" width="100" height="100" as="geometry" />
        </mxCell>
        <mxCell id="3V-Jaaxt2Y7fFEWC-3_t-35" value="- size: DrinkSize&lt;div&gt;- flavor: String&lt;/div&gt;" style="text;strokeColor=none;fillColor=none;align=center;verticalAlign=top;spacingLeft=4;spacingRight=4;overflow=hidden;rotatable=0;points=[[0,0.5],[1,0.5]];portConstraint=eastwest;whiteSpace=wrap;html=1;" vertex="1" parent="3V-Jaaxt2Y7fFEWC-3_t-34">
          <mxGeometry y="26" width="100" height="74" as="geometry" />
        </mxCell>
        <mxCell id="3V-Jaaxt2Y7fFEWC-3_t-36" value="Chips" style="swimlane;fontStyle=0;childLayout=stackLayout;horizontal=1;startSize=26;fillColor=none;horizontalStack=0;resizeParent=1;resizeParentMax=0;resizeLast=0;collapsible=1;marginBottom=0;whiteSpace=wrap;html=1;" vertex="1" parent="1">
          <mxGeometry x="240" y="180" width="90" height="50" as="geometry" />
        </mxCell>
        <mxCell id="3V-Jaaxt2Y7fFEWC-3_t-37" value="- type: String" style="text;strokeColor=none;fillColor=none;align=center;verticalAlign=top;spacingLeft=4;spacingRight=4;overflow=hidden;rotatable=0;points=[[0,0.5],[1,0.5]];portConstraint=eastwest;whiteSpace=wrap;html=1;" vertex="1" parent="3V-Jaaxt2Y7fFEWC-3_t-36">
          <mxGeometry y="26" width="90" height="24" as="geometry" />
        </mxCell>
        <mxCell id="3V-Jaaxt2Y7fFEWC-3_t-39" style="edgeStyle=orthogonalEdgeStyle;rounded=0;orthogonalLoop=1;jettySize=auto;html=1;entryX=0;entryY=0;entryDx=110;entryDy=32;entryPerimeter=0;endArrow=box;endFill=0;" edge="1" parent="1" source="3V-Jaaxt2Y7fFEWC-3_t-36" target="3V-Jaaxt2Y7fFEWC-3_t-30">
          <mxGeometry relative="1" as="geometry" />
        </mxCell>
        <mxCell id="3V-Jaaxt2Y7fFEWC-3_t-40" value="&lt;div style=&quot;background-color: rgb(23, 32, 48); color: rgb(201, 204, 205);&quot;&gt;&lt;pre style=&quot;font-family:&#39;Inter&#39;;font-size:9.8pt;&quot;&gt;&lt;div style=&quot;background-color: rgb(23, 32, 48); color: rgb(201, 204, 205);&quot;&gt;&lt;pre style=&quot;font-family:&#39;Inter&#39;;font-size:9.8pt;&quot;&gt;&lt;div style=&quot;background-color:#172030;color:#c9cccd&quot;&gt;&lt;pre style=&quot;font-family:&#39;Inter&#39;;font-size:9.8pt;&quot;&gt;UI_OF_THE_DANGED&lt;/pre&gt;&lt;/div&gt;&lt;/pre&gt;&lt;/div&gt;&lt;/pre&gt;&lt;/div&gt;" style="shape=folder;fontStyle=1;spacingTop=10;tabWidth=40;tabHeight=14;tabPosition=left;html=1;whiteSpace=wrap;fillColor=#d80073;fontColor=#ffffff;strokeColor=#A50040;" vertex="1" parent="1">
          <mxGeometry x="-600" y="-90" width="160" height="50" as="geometry" />
        </mxCell>
        <mxCell id="3V-Jaaxt2Y7fFEWC-3_t-41" value="&lt;p style=&quot;margin:0px;margin-top:4px;text-align:center;&quot;&gt;&lt;b&gt;One_Heck_Of_A_UI&lt;/b&gt;&lt;/p&gt;&lt;hr size=&quot;1&quot; style=&quot;border-style:solid;&quot;&gt;&lt;p style=&quot;margin:0px;margin-left:4px;&quot;&gt;- scanner&lt;/p&gt;&lt;hr size=&quot;1&quot; style=&quot;border-style:solid;&quot;&gt;&lt;p style=&quot;margin:0px;margin-left:4px;&quot;&gt;+ startOrder(): void&lt;/p&gt;&lt;p style=&quot;margin:0px;margin-left:4px;&quot;&gt;+ buildSandwich () Heckful_sandwich&lt;/p&gt;&lt;p style=&quot;margin:0px;margin-left:4px;&quot;&gt;+ addToppings(): void&lt;/p&gt;&lt;p style=&quot;margin:0px;margin-left:4px;&quot;&gt;+ buildDrink(): drink&lt;/p&gt;&lt;p style=&quot;margin:0px;margin-left:4px;&quot;&gt;+ buildChips(): chips&lt;/p&gt;" style="verticalAlign=top;align=left;overflow=fill;html=1;whiteSpace=wrap;" vertex="1" parent="1">
          <mxGeometry x="-620" y="-10" width="240" height="150" as="geometry" />
        </mxCell>
        <mxCell id="3V-Jaaxt2Y7fFEWC-3_t-42" style="edgeStyle=orthogonalEdgeStyle;rounded=0;orthogonalLoop=1;jettySize=auto;html=1;entryX=0.623;entryY=0.948;entryDx=0;entryDy=0;entryPerimeter=0;endArrow=box;endFill=0;" edge="1" parent="1" source="3V-Jaaxt2Y7fFEWC-3_t-41" target="3V-Jaaxt2Y7fFEWC-3_t-40">
          <mxGeometry relative="1" as="geometry" />
        </mxCell>
        <mxCell id="3V-Jaaxt2Y7fFEWC-3_t-44" style="edgeStyle=orthogonalEdgeStyle;rounded=0;orthogonalLoop=1;jettySize=auto;html=1;entryX=0;entryY=0;entryDx=20;entryDy=0;entryPerimeter=0;fillColor=#d80073;strokeColor=#A50040;strokeWidth=3;" edge="1" parent="1" source="3V-Jaaxt2Y7fFEWC-3_t-40" target="3V-Jaaxt2Y7fFEWC-3_t-4">
          <mxGeometry relative="1" as="geometry" />
        </mxCell>
        <mxCell id="3V-Jaaxt2Y7fFEWC-3_t-45" value="&lt;div style=&quot;background-color: rgb(23, 32, 48); color: rgb(201, 204, 205);&quot;&gt;&lt;pre style=&quot;font-family:&#39;Inter&#39;;font-size:9.8pt;&quot;&gt;&lt;div style=&quot;background-color: rgb(23, 32, 48); color: rgb(201, 204, 205);&quot;&gt;&lt;pre style=&quot;font-family:&#39;Inter&#39;;font-size:9.8pt;&quot;&gt;&lt;div style=&quot;background-color: rgb(23, 32, 48); color: rgb(201, 204, 205);&quot;&gt;&lt;pre style=&quot;font-family:&#39;Inter&#39;;font-size:9.8pt;&quot;&gt;&lt;div style=&quot;background-color:#172030;color:#c9cccd&quot;&gt;&lt;pre style=&quot;font-family:&#39;Inter&#39;;font-size:9.8pt;&quot;&gt;Heck_Toppings&lt;/pre&gt;&lt;/div&gt;&lt;/pre&gt;&lt;/div&gt;&lt;/pre&gt;&lt;/div&gt;&lt;/pre&gt;&lt;/div&gt;" style="shape=folder;fontStyle=1;spacingTop=10;tabWidth=40;tabHeight=14;tabPosition=left;html=1;whiteSpace=wrap;fillColor=light-dark(#6A00FF,#9933FF);fontColor=#ffffff;strokeColor=#3700CC;" vertex="1" parent="1">
          <mxGeometry x="-610" y="860" width="160" height="50" as="geometry" />
        </mxCell>
        <mxCell id="3V-Jaaxt2Y7fFEWC-3_t-46" value="&lt;div style=&quot;background-color:#172030;color:#c9cccd&quot;&gt;&lt;pre style=&quot;font-family:&#39;Inter&#39;;font-size:9.8pt;&quot;&gt;com.pluralsight&lt;/pre&gt;&lt;/div&gt;" style="shape=folder;fontStyle=1;spacingTop=10;tabWidth=40;tabHeight=14;tabPosition=left;html=1;whiteSpace=wrap;fillColor=#1ba1e2;fontColor=#ffffff;strokeColor=#006EAF;" vertex="1" parent="1">
          <mxGeometry x="-370" y="760" width="110" height="50" as="geometry" />
        </mxCell>
        <mxCell id="3V-Jaaxt2Y7fFEWC-3_t-47" style="edgeStyle=orthogonalEdgeStyle;rounded=0;orthogonalLoop=1;jettySize=auto;html=1;entryX=0;entryY=0;entryDx=0;entryDy=14;entryPerimeter=0;" edge="1" parent="1" source="3V-Jaaxt2Y7fFEWC-3_t-45" target="3V-Jaaxt2Y7fFEWC-3_t-46">
          <mxGeometry relative="1" as="geometry" />
        </mxCell>
        <mxCell id="3V-Jaaxt2Y7fFEWC-3_t-50" style="edgeStyle=orthogonalEdgeStyle;rounded=0;orthogonalLoop=1;jettySize=auto;html=1;entryX=0;entryY=0.4;entryDx=0;entryDy=0;entryPerimeter=0;" edge="1" parent="1" source="3V-Jaaxt2Y7fFEWC-3_t-49" target="3V-Jaaxt2Y7fFEWC-3_t-41">
          <mxGeometry relative="1" as="geometry">
            <mxPoint x="-670" y="60.00000000000023" as="targetPoint" />
          </mxGeometry>
        </mxCell>
        <mxCell id="3V-Jaaxt2Y7fFEWC-3_t-49" value="ColorCodes" style="ellipse;shape=umlEntity;whiteSpace=wrap;html=1;fillColor=light-dark(#FFFFFF,#E6E6E6);" vertex="1" parent="1">
          <mxGeometry x="-770" width="80" height="80" as="geometry" />
        </mxCell>
        <mxCell id="3V-Jaaxt2Y7fFEWC-3_t-52" style="edgeStyle=orthogonalEdgeStyle;rounded=0;orthogonalLoop=1;jettySize=auto;html=1;" edge="1" parent="1" source="3V-Jaaxt2Y7fFEWC-3_t-51" target="3V-Jaaxt2Y7fFEWC-3_t-45">
          <mxGeometry relative="1" as="geometry" />
        </mxCell>
        <mxCell id="3V-Jaaxt2Y7fFEWC-3_t-51" value="&lt;p style=&quot;margin:0px;margin-top:4px;text-align:center;&quot;&gt;&lt;i&gt;&amp;lt;&amp;lt;Heckful_Toppings&amp;gt;&amp;gt;&lt;/i&gt;&lt;br&gt;&lt;b&gt;interface/abstract&lt;/b&gt;&lt;/p&gt;&lt;hr size=&quot;1&quot; style=&quot;border-style:solid;&quot;&gt;&lt;p style=&quot;margin:0px;margin-left:4px;&quot;&gt;+ getName(): String&lt;br&gt;+ isExtra();&lt;/p&gt;" style="verticalAlign=top;align=left;overflow=fill;html=1;whiteSpace=wrap;" vertex="1" parent="1">
          <mxGeometry x="-760" y="950" width="190" height="80" as="geometry" />
        </mxCell>
        <mxCell id="3V-Jaaxt2Y7fFEWC-3_t-54" style="edgeStyle=orthogonalEdgeStyle;rounded=0;orthogonalLoop=1;jettySize=auto;html=1;" edge="1" parent="1" source="3V-Jaaxt2Y7fFEWC-3_t-53" target="3V-Jaaxt2Y7fFEWC-3_t-51">
          <mxGeometry relative="1" as="geometry" />
        </mxCell>
        <mxCell id="3V-Jaaxt2Y7fFEWC-3_t-53" value="&lt;p style=&quot;margin: 4px 0px 0px; text-align: center;&quot;&gt;&lt;b&gt;&lt;u&gt;Heckful_PremiumToppings&lt;/u&gt;&lt;/b&gt;&lt;/p&gt;&lt;hr size=&quot;1&quot; style=&quot;border-style:solid;&quot;&gt;&lt;p style=&quot;margin:0px;margin-left:8px;&quot;&gt;- name: String&lt;/p&gt;&lt;p style=&quot;margin:0px;margin-left:8px;&quot;&gt;&lt;br&gt;&lt;/p&gt;" style="verticalAlign=top;align=left;overflow=fill;html=1;whiteSpace=wrap;" vertex="1" parent="1">
          <mxGeometry x="-535" y="950" width="195" height="50" as="geometry" />
        </mxCell>
        <mxCell id="3V-Jaaxt2Y7fFEWC-3_t-55" value="&lt;p style=&quot;margin: 4px 0px 0px; text-align: center;&quot;&gt;&lt;b&gt;&lt;u&gt;Heckful_RegularToppings&lt;/u&gt;&lt;/b&gt;&lt;/p&gt;&lt;hr size=&quot;1&quot; style=&quot;border-style:solid;&quot;&gt;&lt;p style=&quot;margin:0px;margin-left:8px;&quot;&gt;- name: String&lt;/p&gt;&lt;p style=&quot;margin:0px;margin-left:8px;&quot;&gt;&lt;br&gt;&lt;/p&gt;" style="verticalAlign=top;align=left;overflow=fill;html=1;whiteSpace=wrap;" vertex="1" parent="1">
          <mxGeometry x="-830" y="870" width="160" height="50" as="geometry" />
        </mxCell>
        <mxCell id="3V-Jaaxt2Y7fFEWC-3_t-56" style="edgeStyle=orthogonalEdgeStyle;rounded=0;orthogonalLoop=1;jettySize=auto;html=1;entryX=0;entryY=0;entryDx=0;entryDy=14;entryPerimeter=0;" edge="1" parent="1" source="3V-Jaaxt2Y7fFEWC-3_t-55" target="3V-Jaaxt2Y7fFEWC-3_t-45">
          <mxGeometry relative="1" as="geometry" />
        </mxCell>
        <mxCell id="3V-Jaaxt2Y7fFEWC-3_t-57" value="&lt;div style=&quot;background-color: rgb(23, 32, 48); color: rgb(201, 204, 205);&quot;&gt;&lt;pre style=&quot;font-family:&#39;Inter&#39;;font-size:9.8pt;&quot;&gt;&lt;div style=&quot;background-color: rgb(23, 32, 48); color: rgb(201, 204, 205);&quot;&gt;&lt;pre style=&quot;font-family:&#39;Inter&#39;;font-size:9.8pt;&quot;&gt;&lt;div style=&quot;background-color: rgb(23, 32, 48); color: rgb(201, 204, 205);&quot;&gt;&lt;pre style=&quot;font-family:&#39;Inter&#39;;font-size:9.8pt;&quot;&gt;&lt;div style=&quot;background-color: rgb(23, 32, 48); color: rgb(201, 204, 205);&quot;&gt;&lt;pre style=&quot;font-family:&#39;Inter&#39;;font-size:9.8pt;&quot;&gt;&lt;div style=&quot;background-color:#172030;color:#c9cccd&quot;&gt;&lt;pre style=&quot;font-family:&#39;Inter&#39;;font-size:9.8pt;&quot;&gt;Heckful_Order&lt;/pre&gt;&lt;/div&gt;&lt;/pre&gt;&lt;/div&gt;&lt;/pre&gt;&lt;/div&gt;&lt;/pre&gt;&lt;/div&gt;&lt;/pre&gt;&lt;/div&gt;" style="shape=folder;fontStyle=1;spacingTop=10;tabWidth=40;tabHeight=14;tabPosition=left;html=1;whiteSpace=wrap;fillColor=#76608a;fontColor=#ffffff;strokeColor=#432D57;" vertex="1" parent="1">
          <mxGeometry x="-190" y="870" width="160" height="50" as="geometry" />
        </mxCell>
        <mxCell id="3V-Jaaxt2Y7fFEWC-3_t-58" style="edgeStyle=orthogonalEdgeStyle;rounded=0;orthogonalLoop=1;jettySize=auto;html=1;entryX=0;entryY=0;entryDx=110;entryDy=23;entryPerimeter=0;" edge="1" parent="1" source="3V-Jaaxt2Y7fFEWC-3_t-57" target="3V-Jaaxt2Y7fFEWC-3_t-46">
          <mxGeometry relative="1" as="geometry" />
        </mxCell>
        <mxCell id="3V-Jaaxt2Y7fFEWC-3_t-59" value="Heck_Order" style="swimlane;fontStyle=1;align=center;verticalAlign=top;childLayout=stackLayout;horizontal=1;startSize=26;horizontalStack=0;resizeParent=1;resizeParentMax=0;resizeLast=0;collapsible=1;marginBottom=0;whiteSpace=wrap;html=1;" vertex="1" parent="1">
          <mxGeometry x="-240" y="970" width="270" height="190" as="geometry" />
        </mxCell>
        <mxCell id="3V-Jaaxt2Y7fFEWC-3_t-60" value="- List&amp;lt;Heckful_Sandwich&amp;gt; sandwiches&amp;nbsp;&lt;div&gt;- List&amp;lt;Drink&amp;gt; drinks&lt;/div&gt;&lt;div&gt;-&amp;nbsp;List&amp;lt;Chips&amp;gt; chips&amp;nbsp;&lt;/div&gt;&lt;div&gt;-&amp;nbsp;LocalDateTime timestamp&lt;/div&gt;&lt;div&gt;&lt;br&gt;&lt;/div&gt;" style="text;strokeColor=none;fillColor=none;align=left;verticalAlign=top;spacingLeft=4;spacingRight=4;overflow=hidden;rotatable=0;points=[[0,0.5],[1,0.5]];portConstraint=eastwest;whiteSpace=wrap;html=1;" vertex="1" parent="3V-Jaaxt2Y7fFEWC-3_t-59">
          <mxGeometry y="26" width="270" height="74" as="geometry" />
        </mxCell>
        <mxCell id="3V-Jaaxt2Y7fFEWC-3_t-61" value="" style="line;strokeWidth=1;fillColor=none;align=left;verticalAlign=middle;spacingTop=-1;spacingLeft=3;spacingRight=3;rotatable=0;labelPosition=right;points=[];portConstraint=eastwest;strokeColor=inherit;" vertex="1" parent="3V-Jaaxt2Y7fFEWC-3_t-59">
          <mxGeometry y="100" width="270" height="8" as="geometry" />
        </mxCell>
        <mxCell id="3V-Jaaxt2Y7fFEWC-3_t-62" value="&lt;div&gt;+ addSandwich(): void&amp;nbsp;&lt;/div&gt;&lt;div&gt;+ addDrink(): void&amp;nbsp; &amp;nbsp;&amp;nbsp;&lt;/div&gt;&lt;div&gt;&lt;span style=&quot;background-color: transparent; color: light-dark(rgb(0, 0, 0), rgb(255, 255, 255));&quot;&gt;+ addChips(): void&amp;nbsp; &amp;nbsp;&amp;nbsp;&lt;/span&gt;&lt;/div&gt;&lt;div&gt;+ generateReceipt(): String&lt;/div&gt;" style="text;strokeColor=none;fillColor=none;align=left;verticalAlign=top;spacingLeft=4;spacingRight=4;overflow=hidden;rotatable=0;points=[[0,0.5],[1,0.5]];portConstraint=eastwest;whiteSpace=wrap;html=1;" vertex="1" parent="3V-Jaaxt2Y7fFEWC-3_t-59">
          <mxGeometry y="108" width="270" height="82" as="geometry" />
        </mxCell>
        <mxCell id="3V-Jaaxt2Y7fFEWC-3_t-63" style="edgeStyle=orthogonalEdgeStyle;rounded=0;orthogonalLoop=1;jettySize=auto;html=1;entryX=0.5;entryY=1;entryDx=0;entryDy=0;entryPerimeter=0;" edge="1" parent="1" source="3V-Jaaxt2Y7fFEWC-3_t-59" target="3V-Jaaxt2Y7fFEWC-3_t-57">
          <mxGeometry relative="1" as="geometry" />
        </mxCell>
        <mxCell id="3V-Jaaxt2Y7fFEWC-3_t-65" style="edgeStyle=orthogonalEdgeStyle;rounded=0;orthogonalLoop=1;jettySize=auto;html=1;" edge="1" parent="1" source="3V-Jaaxt2Y7fFEWC-3_t-64" target="3V-Jaaxt2Y7fFEWC-3_t-25">
          <mxGeometry relative="1" as="geometry" />
        </mxCell>
        <mxCell id="3V-Jaaxt2Y7fFEWC-3_t-64" value="One_Heck_of_A_Receipts.txt" style="label;fontStyle=0;strokeColor=none;fillColor=none;align=left;verticalAlign=top;overflow=hidden;spacingLeft=28;spacingRight=4;rotatable=0;points=[[0,0.5],[1,0.5]];portConstraint=eastwest;imageWidth=16;imageHeight=16;whiteSpace=wrap;html=1;image=img/clipart/Gear_128x128.png" vertex="1" parent="1">
          <mxGeometry x="-110" y="392" width="225" height="36" as="geometry" />
        </mxCell>
        <mxCell id="3V-Jaaxt2Y7fFEWC-3_t-66" style="edgeStyle=orthogonalEdgeStyle;rounded=0;orthogonalLoop=1;jettySize=auto;html=1;entryX=0;entryY=0;entryDx=110;entryDy=41;entryPerimeter=0;" edge="1" parent="1" source="3V-Jaaxt2Y7fFEWC-3_t-64" target="3V-Jaaxt2Y7fFEWC-3_t-4">
          <mxGeometry relative="1" as="geometry" />
        </mxCell>
        <mxCell id="3V-Jaaxt2Y7fFEWC-3_t-67" value="&lt;div style=&quot;background-color: rgb(23, 32, 48); color: rgb(201, 204, 205);&quot;&gt;&lt;pre style=&quot;font-family:&#39;Inter&#39;;font-size:9.8pt;&quot;&gt;&lt;div style=&quot;background-color: rgb(23, 32, 48); color: rgb(201, 204, 205);&quot;&gt;&lt;pre style=&quot;font-family:&#39;Inter&#39;;font-size:9.8pt;&quot;&gt;&lt;div style=&quot;background-color: rgb(23, 32, 48); color: rgb(201, 204, 205);&quot;&gt;&lt;pre style=&quot;font-family:&#39;Inter&#39;;font-size:9.8pt;&quot;&gt;&lt;div style=&quot;background-color: rgb(23, 32, 48); color: rgb(201, 204, 205);&quot;&gt;&lt;pre style=&quot;font-family:&#39;Inter&#39;;font-size:9.8pt;&quot;&gt;&lt;div style=&quot;background-color:#172030;color:#c9cccd&quot;&gt;&lt;pre style=&quot;font-family:&#39;Inter&#39;;font-size:9.8pt;&quot;&gt;Hecks_Signatures&lt;/pre&gt;&lt;/div&gt;&lt;/pre&gt;&lt;/div&gt;&lt;/pre&gt;&lt;/div&gt;&lt;/pre&gt;&lt;/div&gt;&lt;/pre&gt;&lt;/div&gt;" style="shape=folder;fontStyle=1;spacingTop=10;tabWidth=40;tabHeight=14;tabPosition=left;html=1;whiteSpace=wrap;fillColor=#a0522d;fontColor=#ffffff;strokeColor=#6D1F00;" vertex="1" parent="1">
          <mxGeometry x="-615" y="660" width="160" height="50" as="geometry" />
        </mxCell>
        <mxCell id="3V-Jaaxt2Y7fFEWC-3_t-68" style="edgeStyle=orthogonalEdgeStyle;rounded=0;orthogonalLoop=1;jettySize=auto;html=1;entryX=0;entryY=0;entryDx=0;entryDy=0;entryPerimeter=0;" edge="1" parent="1" source="3V-Jaaxt2Y7fFEWC-3_t-67" target="3V-Jaaxt2Y7fFEWC-3_t-46">
          <mxGeometry relative="1" as="geometry" />
        </mxCell>
        <mxCell id="3V-Jaaxt2Y7fFEWC-3_t-69" value="&lt;p style=&quot;margin:0px;margin-top:4px;text-align:center;&quot;&gt;&lt;b&gt;Hecks_Signature&lt;/b&gt;&lt;/p&gt;&lt;p style=&quot;margin:0px;margin-top:4px;text-align:center;&quot;&gt;&lt;b&gt;extends Heckful_Sandwich&lt;/b&gt;&lt;/p&gt;&lt;hr size=&quot;1&quot; style=&quot;border-style:solid;&quot;&gt;&lt;p style=&quot;margin:0px;margin-left:4px;&quot;&gt;- name: String&lt;/p&gt;" style="verticalAlign=top;align=left;overflow=fill;html=1;whiteSpace=wrap;" vertex="1" parent="1">
          <mxGeometry x="-800" y="550" width="160" height="70" as="geometry" />
        </mxCell>
        <mxCell id="3V-Jaaxt2Y7fFEWC-3_t-70" value="&lt;p style=&quot;margin:0px;margin-top:4px;text-align:center;&quot;&gt;&lt;b&gt;BLT_O_Heck&lt;/b&gt;&lt;/p&gt;&lt;p style=&quot;margin:0px;margin-top:4px;text-align:center;&quot;&gt;&lt;b&gt;extends HEcks_signature&lt;/b&gt;&lt;/p&gt;&lt;hr size=&quot;1&quot; style=&quot;border-style:solid;&quot;&gt;&lt;p style=&quot;margin:0px;margin-left:4px;&quot;&gt;+ BLT_O_Heck()&lt;/p&gt;&lt;p style=&quot;margin:0px;margin-left:4px;&quot;&gt;+&amp;nbsp;super(SandwichSize, BreadType)&lt;/p&gt;" style="verticalAlign=top;align=left;overflow=fill;html=1;whiteSpace=wrap;" vertex="1" parent="1">
          <mxGeometry x="-600" y="520" width="210" height="90" as="geometry" />
        </mxCell>
        <mxCell id="3V-Jaaxt2Y7fFEWC-3_t-71" value="&lt;p style=&quot;margin:0px;margin-top:4px;text-align:center;&quot;&gt;&lt;b&gt;Heck_O_Alot_Of_PhillyCheeseSteak extends Hecks_Signature&lt;/b&gt;&lt;/p&gt;&lt;hr size=&quot;1&quot; style=&quot;border-style:solid;&quot;&gt;&lt;p style=&quot;margin:0px;margin-left:4px;&quot;&gt;+&amp;nbsp;Heck_O_Alot_Of_PhillyCheeseSteak()&lt;/p&gt;&lt;hr size=&quot;1&quot; style=&quot;border-style:solid;&quot;&gt;&lt;p style=&quot;margin:0px;margin-left:4px;&quot;&gt;+ super(SandwichSize,&amp;nbsp;BreadType)&lt;/p&gt;" style="verticalAlign=top;align=left;overflow=fill;html=1;whiteSpace=wrap;" vertex="1" parent="1">
          <mxGeometry x="-350" y="570" width="310" height="100" as="geometry" />
        </mxCell>
        <mxCell id="3V-Jaaxt2Y7fFEWC-3_t-72" style="edgeStyle=orthogonalEdgeStyle;rounded=0;orthogonalLoop=1;jettySize=auto;html=1;entryX=0;entryY=0;entryDx=0;entryDy=41;entryPerimeter=0;" edge="1" parent="1" source="3V-Jaaxt2Y7fFEWC-3_t-69" target="3V-Jaaxt2Y7fFEWC-3_t-67">
          <mxGeometry relative="1" as="geometry" />
        </mxCell>
        <mxCell id="3V-Jaaxt2Y7fFEWC-3_t-73" style="edgeStyle=orthogonalEdgeStyle;rounded=0;orthogonalLoop=1;jettySize=auto;html=1;entryX=0.545;entryY=0.316;entryDx=0;entryDy=0;entryPerimeter=0;" edge="1" parent="1" source="3V-Jaaxt2Y7fFEWC-3_t-70" target="3V-Jaaxt2Y7fFEWC-3_t-67">
          <mxGeometry relative="1" as="geometry" />
        </mxCell>
        <mxCell id="3V-Jaaxt2Y7fFEWC-3_t-74" style="edgeStyle=orthogonalEdgeStyle;rounded=0;orthogonalLoop=1;jettySize=auto;html=1;entryX=0.926;entryY=0.24;entryDx=0;entryDy=0;entryPerimeter=0;" edge="1" parent="1" source="3V-Jaaxt2Y7fFEWC-3_t-71" target="3V-Jaaxt2Y7fFEWC-3_t-67">
          <mxGeometry relative="1" as="geometry" />
        </mxCell>
        <mxCell id="3V-Jaaxt2Y7fFEWC-3_t-75" value="&lt;div style=&quot;background-color: rgb(23, 32, 48); color: rgb(201, 204, 205);&quot;&gt;&lt;pre style=&quot;font-family:&#39;Inter&#39;;font-size:9.8pt;&quot;&gt;&lt;div style=&quot;background-color: rgb(23, 32, 48); color: rgb(201, 204, 205);&quot;&gt;&lt;pre style=&quot;font-family:&#39;Inter&#39;;font-size:9.8pt;&quot;&gt;&lt;div style=&quot;background-color: rgb(23, 32, 48); color: rgb(201, 204, 205);&quot;&gt;&lt;pre style=&quot;font-family:&#39;Inter&#39;;font-size:9.8pt;&quot;&gt;&lt;div style=&quot;background-color: rgb(23, 32, 48); color: rgb(201, 204, 205);&quot;&gt;&lt;pre style=&quot;font-family:&#39;Inter&#39;;font-size:9.8pt;&quot;&gt;&lt;div style=&quot;background-color: rgb(23, 32, 48); color: rgb(201, 204, 205);&quot;&gt;&lt;pre style=&quot;font-family:&#39;Inter&#39;;font-size:9.8pt;&quot;&gt;&lt;div style=&quot;background-color:#172030;color:#c9cccd&quot;&gt;&lt;pre style=&quot;font-family:&#39;Inter&#39;;font-size:9.8pt;&quot;&gt;One_Heck_of_a_Sandwich_Package&lt;/pre&gt;&lt;/div&gt;&lt;/pre&gt;&lt;/div&gt;&lt;/pre&gt;&lt;/div&gt;&lt;/pre&gt;&lt;/div&gt;&lt;/pre&gt;&lt;/div&gt;&lt;/pre&gt;&lt;/div&gt;" style="shape=folder;fontStyle=1;spacingTop=10;tabWidth=40;tabHeight=14;tabPosition=left;html=1;whiteSpace=wrap;fillColor=#e51400;fontColor=#ffffff;strokeColor=#B20000;" vertex="1" parent="1">
          <mxGeometry x="150" y="670" width="260" height="50" as="geometry" />
        </mxCell>
        <mxCell id="3V-Jaaxt2Y7fFEWC-3_t-76" style="edgeStyle=orthogonalEdgeStyle;rounded=0;orthogonalLoop=1;jettySize=auto;html=1;entryX=0.816;entryY=0.373;entryDx=0;entryDy=0;entryPerimeter=0;" edge="1" parent="1" source="3V-Jaaxt2Y7fFEWC-3_t-75" target="3V-Jaaxt2Y7fFEWC-3_t-46">
          <mxGeometry relative="1" as="geometry" />
        </mxCell>
        <mxCell id="3V-Jaaxt2Y7fFEWC-3_t-77" value="&lt;p style=&quot;margin:0px;margin-top:4px;text-align:center;&quot;&gt;&lt;i&gt;Heckful_Sandwich&lt;/i&gt;&lt;/p&gt;&lt;hr size=&quot;1&quot; style=&quot;border-style:solid;&quot;&gt;&lt;p style=&quot;margin:0px;margin-left:4px;&quot;&gt;- size: SandwichSize&lt;br&gt;- bread: BreadType&lt;/p&gt;&lt;p style=&quot;margin:0px;margin-left:4px;&quot;&gt;- posted: boolean&lt;/p&gt;&lt;p style=&quot;margin:0px;margin-left:4px;&quot;&gt;-&amp;nbsp;List&amp;lt;Heckful_Toppings&amp;gt; toppings&lt;/p&gt;&lt;hr size=&quot;1&quot; style=&quot;border-style:solid;&quot;&gt;&lt;p style=&quot;margin:0px;margin-left:4px;&quot;&gt;+ addTopping(Heckful_Toppings):void&lt;/p&gt;&lt;p style=&quot;margin:0px;margin-left:4px;&quot;&gt;+ getBasePrice()&lt;/p&gt;&lt;p style=&quot;margin:0px;margin-left:4px;&quot;&gt;+&amp;nbsp;getToppingsPrice()&lt;/p&gt;&lt;p style=&quot;margin:0px;margin-left:4px;&quot;&gt;+&amp;nbsp;getTotalPrice()&lt;/p&gt;&lt;p style=&quot;margin:0px;margin-left:4px;&quot;&gt;+&amp;nbsp;getDescription()&lt;/p&gt;" style="verticalAlign=top;align=left;overflow=fill;html=1;whiteSpace=wrap;" vertex="1" parent="1">
          <mxGeometry x="140" y="780" width="260" height="190" as="geometry" />
        </mxCell>
        <mxCell id="3V-Jaaxt2Y7fFEWC-3_t-78" style="edgeStyle=orthogonalEdgeStyle;rounded=0;orthogonalLoop=1;jettySize=auto;html=1;" edge="1" parent="1" source="3V-Jaaxt2Y7fFEWC-3_t-77" target="3V-Jaaxt2Y7fFEWC-3_t-75">
          <mxGeometry relative="1" as="geometry" />
        </mxCell>
        <mxCell id="3V-Jaaxt2Y7fFEWC-3_t-79" value="&lt;div style=&quot;background-color: rgb(23, 32, 48); color: rgb(201, 204, 205);&quot;&gt;&lt;pre style=&quot;font-family:&#39;Inter&#39;;font-size:9.8pt;&quot;&gt;&lt;div style=&quot;background-color: rgb(23, 32, 48); color: rgb(201, 204, 205);&quot;&gt;&lt;pre style=&quot;font-family:&#39;Inter&#39;;font-size:9.8pt;&quot;&gt;&lt;div style=&quot;background-color: rgb(23, 32, 48); color: rgb(201, 204, 205);&quot;&gt;&lt;pre style=&quot;font-family:&#39;Inter&#39;;font-size:9.8pt;&quot;&gt;&lt;div style=&quot;background-color: rgb(23, 32, 48); color: rgb(201, 204, 205);&quot;&gt;&lt;pre style=&quot;font-family:&#39;Inter&#39;;font-size:9.8pt;&quot;&gt;&lt;div style=&quot;background-color: rgb(23, 32, 48); color: rgb(201, 204, 205);&quot;&gt;&lt;pre style=&quot;font-family:&#39;Inter&#39;;font-size:9.8pt;&quot;&gt;&lt;div style=&quot;background-color: rgb(23, 32, 48); color: rgb(201, 204, 205);&quot;&gt;&lt;pre style=&quot;font-family:&#39;Inter&#39;;font-size:9.8pt;&quot;&gt;&lt;div style=&quot;background-color:#172030;color:#c9cccd&quot;&gt;&lt;pre style=&quot;font-family:&#39;Inter&#39;;font-size:9.8pt;&quot;&gt;Your_Soulful_Recipts&lt;/pre&gt;&lt;/div&gt;&lt;/pre&gt;&lt;/div&gt;&lt;/pre&gt;&lt;/div&gt;&lt;/pre&gt;&lt;/div&gt;&lt;/pre&gt;&lt;/div&gt;&lt;/pre&gt;&lt;/div&gt;&lt;/pre&gt;&lt;/div&gt;" style="shape=folder;fontStyle=1;spacingTop=10;tabWidth=40;tabHeight=14;tabPosition=left;html=1;whiteSpace=wrap;fillColor=#d0cee2;strokeColor=#56517e;" vertex="1" parent="1">
          <mxGeometry x="260" y="480" width="260" height="50" as="geometry" />
        </mxCell>
        <mxCell id="3V-Jaaxt2Y7fFEWC-3_t-80" style="edgeStyle=orthogonalEdgeStyle;rounded=0;orthogonalLoop=1;jettySize=auto;html=1;entryX=0.583;entryY=1.021;entryDx=0;entryDy=0;entryPerimeter=0;" edge="1" parent="1" source="3V-Jaaxt2Y7fFEWC-3_t-79" target="3V-Jaaxt2Y7fFEWC-3_t-46">
          <mxGeometry relative="1" as="geometry" />
        </mxCell>
        <mxCell id="3V-Jaaxt2Y7fFEWC-3_t-83" value="&lt;div style=&quot;background-color:#172030;color:#c9cccd&quot;&gt;&lt;pre style=&quot;font-family:&#39;Inter&#39;;font-size:9.8pt;&quot;&gt;Your_Soulful_Recipts&lt;/pre&gt;&lt;/div&gt;" style="swimlane;fontStyle=0;childLayout=stackLayout;horizontal=1;startSize=26;fillColor=none;horizontalStack=0;resizeParent=1;resizeParentMax=0;resizeLast=0;collapsible=1;marginBottom=0;whiteSpace=wrap;html=1;" vertex="1" parent="1">
          <mxGeometry x="430" y="580" width="190" height="52" as="geometry" />
        </mxCell>
        <mxCell id="3V-Jaaxt2Y7fFEWC-3_t-84" value="+saveReceipt(order): void&amp;nbsp;" style="text;strokeColor=none;fillColor=none;align=left;verticalAlign=top;spacingLeft=4;spacingRight=4;overflow=hidden;rotatable=0;points=[[0,0.5],[1,0.5]];portConstraint=eastwest;whiteSpace=wrap;html=1;" vertex="1" parent="3V-Jaaxt2Y7fFEWC-3_t-83">
          <mxGeometry y="26" width="190" height="26" as="geometry" />
        </mxCell>
        <mxCell id="3V-Jaaxt2Y7fFEWC-3_t-87" style="edgeStyle=orthogonalEdgeStyle;rounded=0;orthogonalLoop=1;jettySize=auto;html=1;entryX=0.86;entryY=0.926;entryDx=0;entryDy=0;entryPerimeter=0;" edge="1" parent="1" source="3V-Jaaxt2Y7fFEWC-3_t-83" target="3V-Jaaxt2Y7fFEWC-3_t-79">
          <mxGeometry relative="1" as="geometry" />
        </mxCell>
      </root>
    </mxGraphModel>
  </diagram>
</mxfile>
